<svg width="30" height="30" fill="none" xmlns="http://www.w3.org/2000/svg"><path d="M15.004 0h-.008C6.726 0 0 6.728 0 15a14.89 14.89 0 002.856 8.792l-1.87 5.572 5.766-1.843A14.87 14.87 0 0015.004 30C23.274 30 30 23.27 30 15S23.274 0 15.004 0z" fill="#4CAF50"/><path d="M23.732 21.182c-.362 1.022-1.798 1.87-2.944 2.117-.784.167-1.807.3-5.254-1.129-4.408-1.826-7.247-6.305-7.468-6.596-.212-.29-1.781-2.372-1.781-4.524 0-2.153 1.093-3.201 1.534-3.651.362-.37.96-.538 1.533-.538.186 0 .353.01.503.017.44.018.662.045.952.74.362.872 1.244 3.025 1.349 3.246.106.221.213.521.063.812-.14.3-.264.433-.485.688-.222.255-.431.45-.653.724-.202.238-.431.493-.176.934.255.43 1.136 1.869 2.434 3.024 1.674 1.49 3.032 1.967 3.517 2.17.362.15.793.114 1.058-.168.335-.361.75-.961 1.172-1.552.3-.424.678-.476 1.076-.326.405.14 2.548 1.2 2.989 1.419.44.221.73.326.838.512.105.186.105 1.057-.257 2.081z" fill="#FAFAFA"/></svg>