<svg width="32" height="32" fill="none" xmlns="http://www.w3.org/2000/svg"><g opacity=".6" clip-path="url(#clip0)"><path d="M7.11 17.249l14.241 14.24c.33.33.77.511 1.238.511.469 0 .908-.182 1.238-.511l1.048-1.049a1.753 1.753 0 000-2.475L12.917 16.007 24.89 4.035c.33-.33.51-.769.51-1.237 0-.47-.18-.909-.51-1.239L23.84.511C23.51.181 23.07 0 22.602 0c-.469 0-.908.182-1.238.511L7.111 14.764a1.74 1.74 0 00-.51 1.242c-.002.471.18.912.51 1.243z" fill="#00BC8E"/></g><defs><clipPath id="clip0"><path fill="#fff" transform="rotate(-180 16 16)" d="M0 0h32v32H0z"/></clipPath></defs></svg>