<svg width="84" height="84" fill="none" xmlns="http://www.w3.org/2000/svg"><path d="M30.698 46.134c.489 2.783 5.251 16.488 19.474 27.632-1.539.96-3.317 1.304-5.122 1.304-7.317 0-15.807-5.371-22.703-14.369-5.08-6.627-8.155-14.319-9.696-21.856l10.631 3.728-11.547-9.734c-.666-6.626-.19-12.865 1.144-17.81 4.235 8.474 11.575 12.93 18.721 17.269 3.249 1.972 6.551 4.024 9.67 6.449l4.42 14.172.592-9.683c5.752 6.051 10.552 13.82 9.153 22.013.812.567 3.791 2.59 4.922 3.301 3.262-10.912-2.604-21.58-10.655-29.806-4.75-4.852-10.069-8.082-15.212-11.205-8.66-5.257-16.139-9.798-18.718-20.878L14.222 0 10.68 5.85c-7.807 12.894-6.75 39.982 7.247 58.238 7.946 10.362 18.085 16.55 27.123 16.55 4.298 0 7.427-1.335 9.95-3.555 8.236 5.005 15.676 6.845 23.173 6.917-7.329-3.817-24.511-9.31-47.475-37.866z" fill="#00BC8E"/></svg>