<svg width="82" height="84" fill="none" xmlns="http://www.w3.org/2000/svg"><path d="M71.436 25.501A12.425 12.425 0 0072.9 19.6C72.892 12.644 67.256 7.008 60.3 7a12.03 12.03 0 00-7.386 2.717A12.827 12.827 0 0040.7 0a12.83 12.83 0 00-12.222 9.722A12.016 12.016 0 0021.1 7c-6.956.008-12.592 5.644-12.6 12.6a12.425 12.425 0 001.464 5.901 12.587 12.587 0 105.847 24.479A12.09 12.09 0 0022.5 51.8c8.933 0 11.2.28 11.2 2.8a4.95 4.95 0 002.775 4.557 61.67 61.67 0 01-2.586 19.4 4.189 4.189 0 002.786 5.258 4.192 4.192 0 005.237-2.776 70.193 70.193 0 002.975-21.861A4.957 4.957 0 0047.7 54.6c0-2.52 2.267-2.8 11.2-2.8a12.09 12.09 0 006.69-1.82 12.584 12.584 0 105.846-24.478v-.001zm-32.2 54.72a1.4 1.4 0 01-2.672-.834 64.295 64.295 0 002.728-19.305 8.516 8.516 0 002.812 0 67.314 67.314 0 01-2.87 20.138l.002.001zM44.9 54.6a2.554 2.554 0 01-1.946 2.393 1.129 1.129 0 00-.125.046 7.481 7.481 0 01-2.129.361 7.377 7.377 0 01-2.363-.45l-.024-.01A2.498 2.498 0 0136.5 54.6c0-5.6-5.27-5.6-14-5.6a8.23 8.23 0 01-7.56-3.829c2.471.304 6.122.515 8.186-.518.635-.325 1.248-.69 1.835-1.095 1.193-.794 1.596-1.062 4.097-.23a1.4 1.4 0 001.219-2.493c-.028-.02-2.423-1.68-1.547-5.932A8.25 8.25 0 0033.7 36.4c3.546 0 5.6.916 5.6 5.6a1.4 1.4 0 102.8 0c0-4.684 2.054-5.6 5.6-5.6a8.26 8.26 0 004.969-1.495c.854 4.168-1.445 5.859-1.54 5.93a1.4 1.4 0 001.219 2.492c2.5-.831 2.902-.56 4.096.231.588.405 1.2.77 1.836 1.095 2.07 1.035 5.74.82 8.21.515A8.2 8.2 0 0158.9 49c-8.73 0-14 0-14 5.6zm23.8-7c-.164 0-.323-.03-.486-.036a9.774 9.774 0 001.858-3.884 1.4 1.4 0 00-1.652-1.652c-2.52.503-7.174.98-8.9.119a13.124 13.124 0 01-1.54-.918 5.704 5.704 0 00-2.94-1.197 10.92 10.92 0 00-.45-8.351 1.408 1.408 0 00-2.544-.125A4.751 4.751 0 0147.7 33.6c-2.393 0-5.309.382-7 2.84-1.691-2.458-4.607-2.84-7-2.84a4.76 4.76 0 01-4.34-2.026 1.378 1.378 0 00-1.319-.774 1.4 1.4 0 00-1.242.88 10.92 10.92 0 00-.45 8.35 5.715 5.715 0 00-2.94 1.197c-.49.34-1.002.648-1.533.919-1.722.863-6.373.385-8.9-.12a1.4 1.4 0 00-1.648 1.654 9.773 9.773 0 001.858 3.89c-.163.006-.322.036-.486.036a9.793 9.793 0 01-1.938-19.399c.026.755.205 1.497.528 2.18a1.4 1.4 0 102.533-1.191 2.8 2.8 0 011.34-3.73 1.4 1.4 0 10-1.196-2.531 5.523 5.523 0 00-1.568 1.131A9.645 9.645 0 0111.3 19.6c.006-5.41 4.39-9.794 9.8-9.8a9.446 9.446 0 016.16 2.573 5.578 5.578 0 00-1.343 1.851 1.4 1.4 0 002.557 1.141 2.807 2.807 0 013.699-1.417 1.4 1.4 0 101.14-2.556 5.553 5.553 0 00-2.228-.482A10.168 10.168 0 0140.7 2.8a10.01 10.01 0 019.607 8.11 5.577 5.577 0 00-2.21.482 1.4 1.4 0 001.143 2.556 2.8 2.8 0 013.697 1.417 1.4 1.4 0 002.558-1.141 5.556 5.556 0 00-1.355-1.862A9.453 9.453 0 0160.3 9.8c5.41.006 9.794 4.39 9.8 9.8a9.62 9.62 0 01-1.095 4.456 5.54 5.54 0 00-1.558-1.12 1.4 1.4 0 10-1.194 2.531 2.8 2.8 0 011.338 3.73 1.4 1.4 0 002.534 1.191 5.567 5.567 0 00.535-2.178A9.793 9.793 0 0168.7 47.6z" fill="#00BC8E"/></svg>