<svg width="84" height="84" fill="none" xmlns="http://www.w3.org/2000/svg"><g clip-path="url(#clip0)" fill="#00BC8E"><path d="M26.585 58.794c13.546 0 21.006-7.957 21.006-22.406C47.59 22.86 28.442 1.352 27.627.444a1.446 1.446 0 00-2.084 0C24.728 1.352 5.58 22.86 5.58 36.388c0 14.449 7.46 22.406 21.005 22.406zm0-55.279C30.594 8.22 44.79 25.634 44.79 36.388c0 8.943-3.16 19.605-18.205 19.605C11.54 55.993 8.38 45.33 8.38 36.388c0-10.754 14.195-28.168 18.205-32.873zm39.21 58.079c8.01 0 12.604-5.345 12.604-14.667 0-8.754-11.107-20.787-11.579-21.296a1.443 1.443 0 00-2.05 0c-.471.51-11.578 12.542-11.578 21.296 0 9.322 4.593 14.667 12.603 14.667zm0-32.895c2.701 3.143 9.803 12 9.803 18.228 0 7.874-3.298 11.867-9.803 11.867-6.504 0-9.802-3.993-9.802-11.867 0-6.229 7.1-15.085 9.802-18.227zM45.14 56.466c-.357.405-8.752 9.994-8.752 16.331C36.388 79.917 39.96 84 46.19 84c6.229 0 9.803-4.083 9.803-11.203 0-6.337-8.396-15.926-8.753-16.33a1.447 1.447 0 00-2.1 0zM46.19 81.2c-4.645 0-7.002-2.828-7.002-8.403 0-3.806 4.382-10.002 7.002-13.23 2.622 3.22 7.002 9.418 7.002 13.23 0 5.575-2.357 8.403-7.002 8.403z"/><path d="M23.644 53.185a1.401 1.401 0 00.28-2.787 10.26 10.26 0 01-7.482-3.82c-3.725-4.856-2.491-12.684-2.48-12.762a1.4 1.4 0 00-2.761-.46c-.062.37-1.451 9.083 3.01 14.914a12.941 12.941 0 009.433 4.915zm40.751 2.808a9.75 9.75 0 006.85-2.95 8.37 8.37 0 001.532-7.084 1.4 1.4 0 00-2.76.463 5.745 5.745 0 01-.9 4.798 6.971 6.971 0 01-4.722 1.972 1.4 1.4 0 000 2.801zm-18.98 19.752a1.607 1.607 0 01-.772-2.322 1.4 1.4 0 00-2.507-1.252 4.408 4.408 0 002.027 6.088 1.4 1.4 0 101.252-2.507v-.007z"/></g><defs><clipPath id="clip0"><path fill="#fff" d="M0 0h84v84H0z"/></clipPath></defs></svg>