<svg width="233" height="48" fill="none" xmlns="http://www.w3.org/2000/svg"><g clip-path="url(#clip0)"><path d="M25.307 22.693h-2.614v2.614h2.614v-2.614zm9.798 9.799h-2.613v2.613h2.613v-2.613zm-9.798 0h-2.614v2.613h2.614v-2.613zm9.798-19.59h-2.613v2.613h2.613v-2.613zm-9.798 0h-2.614v2.613h2.614v-2.613zm-9.792 9.791h-2.613v2.614h2.613v-2.614zm19.59 0h-2.613v2.614h2.613v-2.614zm-19.59-9.791h-2.613v2.613h2.613v-2.613zm0 19.59h-2.613v2.613h2.613v-2.613z" fill="#F6E2EF"/><path d="M45.435 26.334h-12.95v5.13h12.957a2.571 2.571 0 002.565-2.565 2.573 2.573 0 00-2.572-2.565zm-22.742 5.13h2.614v-5.13H12.902v5.13h9.791zm-20.128 0h3.159v-5.13h-3.16A2.567 2.567 0 000 28.9a2.571 2.571 0 002.565 2.565zm0-19.59h3.159v-5.13h-3.16A2.571 2.571 0 000 9.31a2.567 2.567 0 002.565 2.565z" fill="#CEE8E6"/><path d="M6.744 25.307v9.791h5.13V22.693h-5.13v2.614zm0 20.128A2.571 2.571 0 009.31 48a2.571 2.571 0 002.565-2.565v-3.152h-5.13v3.152zm5.13-32.533V2.564A2.571 2.571 0 009.31 0a2.571 2.571 0 00-2.565 2.565v12.95h5.13v-2.613zm19.59 0V2.564A2.571 2.571 0 0028.9 0a2.571 2.571 0 00-2.565 2.565v12.95h5.13v-2.613zm-5.13 12.405v9.791h5.13V22.693h-5.13v2.614zm0 20.128A2.571 2.571 0 0028.9 48a2.571 2.571 0 002.565-2.565v-3.152h-5.13v3.152z" fill="#F2D2E5"/><path d="M45.435 36.126h-3.152v5.13h3.16a2.571 2.571 0 002.564-2.565 2.577 2.577 0 00-2.572-2.565zm-33.044 0H2.564A2.571 2.571 0 000 38.69a2.571 2.571 0 002.565 2.565h12.95v-5.13h-3.123zm19.583 0h-9.281v5.13h12.405v-5.13h-3.124zm13.461-19.583h-3.152v5.123h3.16a2.571 2.571 0 002.564-2.565 2.571 2.571 0 00-2.572-2.558zm-42.87 5.123h12.95v-5.13H2.564A2.577 2.577 0 000 19.108a2.565 2.565 0 002.565 2.558zm20.128-5.123v5.123h12.405v-5.123H22.693z" fill="#AFDDD2"/><path d="M16.543 35.098V45.43a2.571 2.571 0 002.565 2.564 2.571 2.571 0 002.565-2.565V32.5h-5.13v2.6zm5.123-32.533A2.565 2.565 0 0019.108 0a2.571 2.571 0 00-2.565 2.565v3.159h5.123v-3.16zm-5.123 12.95v9.792h5.123V12.902h-5.123v2.613zm24.713-12.95A2.571 2.571 0 0038.69 0a2.571 2.571 0 00-2.565 2.565v3.159h5.13v-3.16zm-5.13 12.95v9.792h5.13V12.902h-5.13v2.613zm0 19.583V45.43a2.571 2.571 0 002.565 2.564 2.571 2.571 0 002.565-2.565V32.5h-5.13v2.6z" fill="#A4D9CC"/><path d="M15.515 11.874h9.792v-5.13H12.902v5.13h2.613zm19.583 0h10.344a2.571 2.571 0 002.565-2.565 2.571 2.571 0 00-2.565-2.565H32.485v5.13h2.613z" fill="#CEE8E6"/></g><g opacity=".75" clip-path="url(#clip1)"><path opacity=".75" d="M84.443 32.617h-4.3V20.225c0-.246-.055-.465-.165-.684-.11-.219-.276-.383-.469-.547-.192-.164-.413-.274-.689-.383a2.758 2.758 0 00-.826-.137c-.304 0-.58.055-.827.137a2.123 2.123 0 00-.69.383c-.192.164-.358.328-.468.547-.11.219-.165.438-.165.684v12.42h-4.272v-12.42a1.48 1.48 0 00-.166-.684 1.472 1.472 0 00-.468-.547c-.193-.164-.414-.274-.69-.383a2.757 2.757 0 00-.826-.137 2.62 2.62 0 00-.827.137 2.122 2.122 0 00-.689.383c-.193.164-.358.328-.469.547-.11.219-.165.438-.165.684v12.42H63v-12.42c0-.711.165-1.395.496-2.024.33-.63.8-1.177 1.378-1.67.579-.491 1.268-.847 2.04-1.12A7.535 7.535 0 0169.422 15c.8 0 1.57.11 2.315.356a6.175 6.175 0 011.985 1.012c.578-.438 1.24-.766 1.984-1.012A7.144 7.144 0 0177.993 15c.883 0 1.71.137 2.509.41.771.274 1.46.63 2.04 1.122.578.492 1.046 1.04 1.377 1.669.331.629.496 1.313.496 2.024v12.392h.028zm20.726-6.948c0 .957-.22 1.86-.661 2.708-.441.848-1.075 1.587-1.847 2.216-.772.629-1.681 1.121-2.728 1.477-1.048.355-2.15.547-3.335.547-1.186 0-2.288-.191-3.335-.547-1.048-.356-1.957-.848-2.729-1.477a7.019 7.019 0 01-1.819-2.216 5.787 5.787 0 01-.662-2.708V15.246h4.273V25.67c0 .465.11.93.33 1.34.22.41.524.793.91 1.094.386.301.854.575 1.378.739a4.83 4.83 0 001.681.274c.579 0 1.158-.083 1.654-.274a5.063 5.063 0 001.378-.739c.386-.3.689-.684.909-1.094.221-.41.331-.875.331-1.34V15.246h4.272V25.67zm2.481-5.225c0-.711.165-1.395.496-2.024a5.237 5.237 0 011.378-1.642 6.974 6.974 0 012.04-1.121 7.413 7.413 0 012.508-.41h9.839v3.473h-9.839c-.304 0-.579.055-.827.137a2.124 2.124 0 00-.689.383c-.193.164-.359.328-.469.547-.11.22-.165.438-.165.684 0 .246.055.465.165.684.11.219.248.41.469.547.193.164.413.274.689.383.248.082.551.137.827.137h4.299a7.65 7.65 0 012.508.41c.772.274 1.461.63 2.04 1.122a5.333 5.333 0 011.378 1.668 4.31 4.31 0 01.496 2.025 4.31 4.31 0 01-.496 2.024 5.237 5.237 0 01-1.378 1.642 6.972 6.972 0 01-2.04 1.121 7.528 7.528 0 01-2.508.41h-9.536v-3.501h9.536c.303 0 .579-.055.827-.137.248-.082.496-.219.689-.383.193-.164.358-.328.469-.547.11-.219.165-.438.165-.684 0-.246-.055-.465-.165-.684a1.474 1.474 0 00-.469-.547c-.193-.164-.413-.274-.689-.383a2.753 2.753 0 00-.827-.137h-4.299a7.648 7.648 0 01-2.508-.41 6.972 6.972 0 01-2.04-1.122 5.333 5.333 0 01-1.378-1.668 4.049 4.049 0 01-.496-1.997zm34.975 12.173h-15.021v-17.37h4.3v13.896h10.721v3.474zm6.505 0h-4.272v-17.37h4.3v17.37h-.028zm21.14 0h-4.603l-8.268-11.435v11.435h-4.273v-17.37h4.603l8.269 11.461V15.246h4.299v17.371h-.027z" fill="#97949D"/><path opacity=".75" d="M195.268 24a7.69 7.69 0 01-.386 2.38 8.713 8.713 0 01-1.102 2.134 9.087 9.087 0 01-1.737 1.833 13.415 13.415 0 01-2.232 1.422 13.68 13.68 0 01-2.646.903c-.937.219-1.929.328-2.949.328-1.02 0-1.984-.109-2.949-.328a13.68 13.68 0 01-2.646-.903 11.23 11.23 0 01-2.26-1.422 8.392 8.392 0 01-1.736-1.833c-.497-.656-.855-1.395-1.131-2.134-.275-.766-.385-1.559-.385-2.38 0-.82.137-1.614.385-2.38a7.933 7.933 0 011.131-2.133 10.732 10.732 0 011.736-1.806 11.12 11.12 0 012.26-1.395 13.68 13.68 0 012.646-.903 12.983 12.983 0 012.949-.328c1.02 0 2.012.11 2.949.328.937.22 1.819.52 2.646.903s1.571.848 2.232 1.395a8.966 8.966 0 011.737 1.806 7.872 7.872 0 011.102 2.134c.248.765.386 1.559.386 2.38zm-4.272 0a4.58 4.58 0 00-.551-2.16 5.594 5.594 0 00-1.461-1.751 6.624 6.624 0 00-2.177-1.177c-.827-.3-1.709-.437-2.646-.437-.937 0-1.847.136-2.674.437s-1.543.684-2.177 1.177a5.934 5.934 0 00-1.461 1.75 4.584 4.584 0 00-.551 2.161c0 .766.193 1.478.551 2.134a5.933 5.933 0 001.461 1.75 6.91 6.91 0 002.177 1.177c.827.301 1.709.438 2.674.438.937 0 1.819-.137 2.646-.438a7.888 7.888 0 002.177-1.176 5.918 5.918 0 001.461-1.75c.386-.657.551-1.369.551-2.135zm11.383 8.617h-4.3v-17.37h8.572c.799 0 1.544.081 2.26.245a9.97 9.97 0 012.04.712 8.086 8.086 0 013.087 2.516 5.66 5.66 0 01.854 1.67 5.786 5.786 0 01-.358 4.541c-.441.847-1.075 1.586-1.847 2.215-.772.63-1.681 1.121-2.728 1.505-1.048.355-2.15.547-3.335.547h-4.3v3.419h.055zm0-13.897v6.949h4.3c.578 0 1.13-.082 1.653-.274a4.897 4.897 0 001.351-.738c.386-.329.689-.684.909-1.122.221-.438.331-.875.331-1.34 0-.465-.11-.93-.331-1.34-.22-.439-.523-.794-.909-1.122a4.055 4.055 0 00-1.351-.74 5.368 5.368 0 00-1.653-.273h-4.3zm24.172 13.897h-4.272V18.72h-6.45v-3.474h17.143v3.474h-6.421v13.897z" fill="#49453F"/></g><defs><clipPath id="clip0"><path fill="#fff" d="M0 0h48v48H0z"/></clipPath><clipPath id="clip1"><path fill="#fff" transform="translate(63 15)" d="M0 0h170v18H0z"/></clipPath></defs></svg>