<svg width="24" height="24" fill="none" xmlns="http://www.w3.org/2000/svg"><g clip-path="url(#clip0)" fill="#00BC8E"><path d="M2.5 10.5A2.503 2.503 0 000 13v8c0 1.378 1.122 2.5 2.5 2.5h3c.563 0 1.081-.19 1.5-.506V10.5H2.5zM24 14.25c0-.601-.238-1.161-.651-1.574a2.483 2.483 0 00.64-1.909C23.872 9.496 22.727 8.5 21.381 8.5h-6.177c.306-.93.796-2.632.796-4 0-2.169-1.843-4-3-4-1.039 0-1.781.585-1.813.609A.502.502 0 0011 1.5v3.391L8.12 11.13l-.12.061v10.718c.814.384 1.844.591 2.5.591h9.179c1.089 0 2.042-.734 2.266-1.747a2.25 2.25 0 00-.181-1.502 2.24 2.24 0 001.001-3.001 2.239 2.239 0 001.235-2z"/></g><defs><clipPath id="clip0"><path fill="#fff" d="M0 0h24v24H0z"/></clipPath></defs></svg>