<svg width="34" height="32" fill="none" xmlns="http://www.w3.org/2000/svg"><g opacity=".2" fill="#000"><path fill-rule="evenodd" clip-rule="evenodd" d="M24.335 3.906a10.53 10.53 0 013.325 7.498c3.189 1.837 5.34 5.282 5.34 9.219 0 5.862-4.77 10.631-10.631 10.631a10.57 10.57 0 01-5.37-1.452 10.569 10.569 0 01-5.368 1.452c-1.702 0-3.395-.413-4.897-1.193a.47.47 0 01.434-.835 9.582 9.582 0 004.463 1.087 9.65 9.65 0 004.48-1.094c-.425-.31-.83-.655-1.21-1.03a.47.47 0 01.661-.67c.446.44.928.832 1.438 1.173.51-.341.992-.733 1.438-1.174a.47.47 0 11.661.67c-.381.376-.786.72-1.21 1.03a9.645 9.645 0 004.48 1.095c5.343 0 9.69-4.347 9.69-9.69a9.69 9.69 0 00-4.431-8.135c-.289 3.602-2.38 6.702-5.37 8.397-.013.55-.068 1.099-.165 1.636a.47.47 0 11-.927-.167c.06-.324.1-.653.126-.984a10.57 10.57 0 01-4.26.892c-1.54 0-3.004-.33-4.326-.92.025.34.067.679.128 1.012a.47.47 0 01-.927.167 10.607 10.607 0 01-.166-1.671c-2.966-1.71-5.035-4.808-5.31-8.4a9.691 9.691 0 00-4.49 8.173 9.657 9.657 0 003.581 7.521.47.47 0 11-.594.73A10.595 10.595 0 011 20.623c0-3.963 2.18-7.426 5.404-9.254C6.544 5.627 11.257 1 17.032 1c1.992 0 3.936.555 5.62 1.606a.47.47 0 11-.499.799 9.664 9.664 0 00-5.121-1.464c-5.092 0-9.28 3.948-9.662 8.943a10.57 10.57 0 014.261-.892c1.924 0 3.761.503 5.37 1.447a10.549 10.549 0 015.368-1.447c1.54 0 3.004.33 4.326.92a9.59 9.59 0 00-3.007-6.322.47.47 0 01.647-.684zm-2.203 15.052c.044.28.077.563.099.847a9.693 9.693 0 004.484-7.841 9.63 9.63 0 00-4.346-1.031 9.633 9.633 0 00-4.48 1.09c.51.375.993.798 1.44 1.268a.47.47 0 11-.681.65A9.818 9.818 0 0017 12.55a9.806 9.806 0 00-1.648 1.39.47.47 0 01-.681-.65c.448-.47.93-.893 1.441-1.268a9.633 9.633 0 00-4.48-1.09 9.63 9.63 0 00-4.285 1 9.692 9.692 0 004.426 7.833c.021-.27.053-.54.095-.808a.47.47 0 11.93.146 9.8 9.8 0 00-.113 1.186 9.63 9.63 0 004.347 1.031 9.63 9.63 0 004.284-1 9.804 9.804 0 00-.114-1.217.47.47 0 11.93-.146zm-1.364-3.772a.47.47 0 10-.808.482c.322.541.593 1.116.803 1.709a.471.471 0 00.887-.315 10.615 10.615 0 00-.882-1.876zm-.541 11.326a.47.47 0 00.398-.219c.373-.592.69-1.223.939-1.875a.47.47 0 00-.88-.336 9.67 9.67 0 01-.855 1.708.47.47 0 00.398.722zm-6.453 0a.47.47 0 00.397-.722 9.676 9.676 0 01-.856-1.708.47.47 0 00-.879.336c.25.652.566 1.283.94 1.875a.47.47 0 00.398.22zm-.542-11.326a.47.47 0 01.809.482 9.664 9.664 0 00-.804 1.709.47.47 0 11-.887-.316 10.6 10.6 0 01.882-1.875z"/><path d="M27.66 11.404l-.502.01.006.284.245.14.25-.434zm-3.325-7.498l.345-.364-.345.364zM33 20.623h-.502H33zm-16 9.179l.254-.433L17 29.22l-.254.15.254.432zm-10.266.259l-.231.445.231-.445zm.434-.835l-.231.445.231-.445zm8.943-.007l.233.444.715-.373-.652-.477-.296.406zm-1.21-1.03l-.353.357.353-.358zm-.005-.666l-.357-.353.357.353zm.666-.005l-.353.358.353-.358zM17 28.692l-.279.417.279.186.279-.186-.28-.418zm1.438-1.174l.353.358-.353-.358zm.665.005l-.357.352.357-.352zm-.004.665l.353.358-.353-.358zm-1.21 1.03l-.297-.405-.651.477.715.373.233-.444zm9.739-16.73l.273-.421-.706-.459-.067.84.5.04zm-5.37 8.397l-.247-.436-.247.14-.007.284.502.012zm-.165 1.636l-.494-.089.494.09zm-.547.38l-.089.494.09-.494zm-.38-.547l-.493-.089.494.09zm.126-.984l.5.038.064-.834-.766.336.202.46zm-8.586-.028l.205-.459-.767-.343.062.838.5-.036zm.128 1.012l.494-.089-.494.09zm-.38.547l-.09-.494.09.494zm-.547-.38l-.494.09.494-.09zm-.166-1.671l.501-.011-.006-.283-.245-.141-.25.435zm-5.31-8.4l.501-.039-.064-.836-.707.451.27.423zm-.909 15.694l.317-.39-.317.39zm.068.662l-.39-.317.39.317zm-.365.174v-.502.502zm-.297-.106l-.316.39.316-.39zM6.404 11.37l.247.436.248-.14.007-.284-.502-.012zm16.248-8.763l-.266.426.266-.426zm.15.649l-.426-.266.426.266zm-.649.15l-.265.426.265-.426zM7.37 10.884l-.5-.038-.064.834.766-.336-.202-.46zm9.63.556l-.254.432.254.15.255-.15L17 11.44zm9.695-.527l-.205.458.766.342-.06-.837-.5.037zM23.688 4.59l-.345.365.345-.365zm-.018-.665l.364.345-.364-.345zm-1.44 15.88l-.5.038.064.836.707-.451-.27-.423zm-.098-.847l-.496.078.496-.078zm4.583-6.994l.502.017.01-.321-.286-.144-.226.448zm-8.827.06l-.233-.445-.714.373.65.476.297-.405zm1.441 1.267l.364-.346-.364.346zm-.016.665l-.346-.363.346.363zm-.665-.016l.363-.346-.363.346zM17 12.551l.28-.417-.28-.187-.279.187.28.417zm-1.648 1.39l.364.345-.364-.346zm-.665.015l-.346.364.346-.364zm-.016-.665l-.364-.346.364.346zm1.441-1.268l.297.405.65-.476-.714-.373-.233.444zm-8.765-.09l-.223-.45-.289.143.01.323.502-.016zm4.426 7.833l-.274.421.707.458.067-.839-.5-.04zm.095-.808l.496.078-.496-.078zm.538-.392l-.078.496.078-.496zm.392.538l-.496-.078.496.078zm-.113 1.186l-.501-.017-.011.32.286.145.226-.448zm8.63.03l.224.45.289-.143-.01-.322-.502.016zm-.113-1.216l.496-.078-.496.078zm.392-.538l.078.496-.078-.496zm-1.471-3.543l.257.431-.257-.431zm.645.163l.431-.257-.431.257zm-.808.482l-.432.257.432-.257zm.803 1.709l.473-.168-.473.168zm.601.286l.168.473-.168-.473zm.286-.601l.473-.169-.473.169zm-1.025 9.231l.424.268-.424-.268zm.939-1.875l.469.179-.469-.18zm-.271-.608l-.18.469.18-.469zm-.608.272l-.469-.18.469.18zm-.856 1.708l-.424-.268.424.268zm.147.65l.268-.425-.268.424zm-5.951 0l.268.424-.268-.425zm.146-.65l-.424.268.424-.268zm-.856-1.708l-.468.179.468-.18zm-.607-.272l-.18-.469.18.469zm-.272.608l-.469.179.47-.18zm.94 1.875l-.425.268.425-.268zm.502-11.27l.256-.431-.257.43zm-.646.163l-.43-.257.43.257zm.809.482l-.431-.257.43.257zm-.804 1.709l-.473-.168.473.168zm-.601.286l-.168.473.168-.473zm-.286-.602l-.473-.168.473.168zm15.812-5.667c-.062-3-1.294-5.783-3.482-7.852l-.69.73a10.027 10.027 0 013.168 7.142l1.004-.02zm5.34 9.229c0-4.125-2.254-7.731-5.592-9.654l-.5.87a10.136 10.136 0 015.088 8.784h1.004zM22.369 31.756c6.14 0 11.133-4.994 11.133-11.133h-1.004c0 5.585-4.544 10.129-10.13 10.129v1.004zm-5.623-1.521a11.072 11.072 0 005.623 1.52v-1.003a10.07 10.07 0 01-5.115-1.383l-.508.866zm-5.115 1.52c2.005 0 3.934-.528 5.623-1.52l-.508-.866a10.068 10.068 0 01-5.115 1.383v1.004zm-5.128-1.249a11.16 11.16 0 005.128 1.25v-1.004c-1.622 0-3.236-.393-4.665-1.136l-.463.89zm-.415-1.311a.973.973 0 00.415 1.311l.463-.89a.031.031 0 01.013.042l-.89-.463zM7.4 28.78a.973.973 0 00-1.312.415l.891.463a.031.031 0 01-.042.013l.463-.89zm4.23 1.03a9.079 9.079 0 01-4.23-1.03l-.463.891a10.08 10.08 0 004.694 1.144V29.81zm4.249-1.036a9.142 9.142 0 01-4.248 1.037v1.004c1.665 0 3.273-.4 4.713-1.152l-.465-.89zm-1.33-.229c.398.394.821.754 1.266 1.079l.592-.81c-.404-.297-.79-.624-1.154-.983l-.705.715zm-.01-1.375a.973.973 0 00.01 1.375l.704-.714a.031.031 0 010 .044l-.714-.705zm1.376-.009a.973.973 0 00-1.376.01l.715.704a.031.031 0 01-.045 0l.706-.714zm1.364 1.113a9.296 9.296 0 01-1.364-1.113l-.706.715c.47.462.975.874 1.512 1.233l.558-.835zm.806-1.113a9.27 9.27 0 01-1.364 1.113l.558.835a10.29 10.29 0 001.512-1.233l-.706-.715zm1.376.01a.972.972 0 00-1.376-.01l.706.715a.031.031 0 01-.045 0l.715-.706zm-.01 1.375a.972.972 0 00.01-1.376l-.715.705a.031.031 0 010-.044l.706.715zm-1.266 1.078a11.32 11.32 0 001.267-1.078l-.706-.715c-.363.359-.749.686-1.154.982l.593.81zm4.184.187a9.144 9.144 0 01-4.248-1.037l-.465.89a10.148 10.148 0 004.713 1.15v-1.003zm9.188-9.188c0 5.066-4.122 9.188-9.188 9.188v1.004c5.62 0 10.192-4.572 10.192-10.192h-1.004zm-4.202-7.714a9.188 9.188 0 014.202 7.714h1.004c0-3.584-1.86-6.74-4.66-8.556l-.546.842zm-4.849 8.413c3.129-1.774 5.32-5.02 5.622-8.794l-1-.08c-.275 3.43-2.267 6.385-5.117 8l.495.874zm.08 1.288c.102-.563.16-1.138.174-1.712l-1.003-.025a10.223 10.223 0 01-.158 1.56l.988.177zm-.956.8a.973.973 0 00.957-.8l-.988-.178a.031.031 0 01.031-.026v1.004zm-.173-.015c.057.01.115.015.173.015v-1.003h.005l-.178.988zm-.785-1.13a.973.973 0 00.785 1.13l.178-.988c.017.003.029.02.025.037l-.988-.179zm.12-.933a9.247 9.247 0 01-.12.933l.988.178c.062-.341.106-.688.132-1.035l-1-.076zm-3.76 1.432c1.585 0 3.094-.334 4.462-.934l-.404-.92c-1.243.546-2.615.85-4.059.85v1.004zm-4.53-.964c1.384.62 2.918.964 4.53.964V21.76c-1.468 0-2.862-.314-4.121-.877l-.41.917zm.825.465a9.244 9.244 0 01-.12-.96l-1.002.073c.027.358.071.714.134 1.066l.989-.179zm-.784 1.13a.973.973 0 00.785-1.13l-.989.178a.031.031 0 01.026-.036l.178.988zm-.173.015a.967.967 0 00.173-.015l-.178-.988h.005v1.003zm-.957-.8c.085.471.495.8.957.8v-1.003c.009 0 .016.003.02.007.006.004.01.011.011.018l-.988.178zm-.174-1.75c.012.588.07 1.175.174 1.75l.988-.178a10.226 10.226 0 01-.159-1.593l-1.003.021zM5.93 12.488c.288 3.764 2.455 7.008 5.559 8.797l.501-.87c-2.827-1.63-4.797-4.583-5.059-8.004l-1 .077zm-3.488 8.135a9.19 9.19 0 014.259-7.75l-.54-.847a10.193 10.193 0 00-4.723 8.597h1.004zm3.396 7.132a9.155 9.155 0 01-3.396-7.132H1.44a10.16 10.16 0 003.766 7.91l.634-.778zm.14 1.368a.972.972 0 00-.14-1.368l-.634.778a.031.031 0 01-.004-.044l.779.634zm-.754.359a.972.972 0 00.755-.36l-.78-.633a.033.033 0 01.025-.011v1.004zm-.613-.218a.97.97 0 00.613.218v-1.004a.034.034 0 01.02.007l-.633.779zM.498 20.623c0 3.365 1.5 6.515 4.114 8.64l.633-.778a10.093 10.093 0 01-3.743-7.862H.498zm5.658-9.691C2.782 12.845.498 16.471.498 20.622h1.004c0-3.774 2.076-7.074 5.15-8.817l-.496-.873zM17.032.498c-6.048 0-10.984 4.845-11.13 10.858l1.004.025c.133-5.47 4.625-9.879 10.126-9.879V.498zm5.885 1.682A11.106 11.106 0 0017.031.498v1.004c1.9 0 3.75.53 5.355 1.53l.531-.852zm.31 1.34a.973.973 0 00-.31-1.34l-.531.852a.031.031 0 01-.01-.043l.852.531zm-1.34.31a.973.973 0 001.34-.31l-.851-.531a.031.031 0 01.043-.01l-.531.852zm-4.855-1.387c1.722 0 3.401.48 4.856 1.388l.531-.852a10.165 10.165 0 00-5.387-1.54v1.004zm-9.161 8.48c.362-4.737 4.333-8.48 9.16-8.48V1.44c-5.356 0-9.759 4.152-10.161 9.407l1 .076zm3.76-1.433c-1.586 0-3.095.334-4.463.934l.404.92a10.068 10.068 0 014.06-.85V9.49zm5.623 1.517a11.052 11.052 0 00-5.623-1.517v1.004c1.836 0 3.585.48 5.115 1.378l.509-.865zM22.37 9.49c-2.013 0-3.937.526-5.623 1.517l.509.865a10.047 10.047 0 015.114-1.378V9.49zm4.531.964a11.07 11.07 0 00-4.53-.964v1.004c1.467 0 2.861.313 4.12.877l.41-.917zm-3.557-5.5a9.089 9.089 0 012.852 5.995l1-.073a10.092 10.092 0 00-3.162-6.65l-.69.729zm-.038-1.374a.973.973 0 00.038 1.375l.69-.73a.031.031 0 01.002.045l-.73-.69zm1.375-.038a.973.973 0 00-1.375.038l.73.69a.031.031 0 01-.045.001l.69-.73zM22.73 19.766a11.254 11.254 0 00-.103-.886l-.992.156c.042.266.073.536.094.807l1.001-.077zm3.482-7.82a9.191 9.191 0 01-4.252 7.436l.54.846a10.195 10.195 0 004.716-8.247l-1.003-.034zm-3.844-.511c1.481 0 2.88.352 4.12.977l.452-.896a10.131 10.131 0 00-4.572-1.085v1.004zm-4.248 1.033a9.13 9.13 0 014.248-1.033V10.43c-1.671 0-3.277.396-4.713 1.148l.465.89zm1.572.477a11.304 11.304 0 00-1.508-1.327l-.593.81c.487.357.947.76 1.374 1.21l.727-.693zm-.034 1.375a.973.973 0 00.034-1.375l-.727.692a.031.031 0 01.001-.044l.693.727zm-1.375-.034c.37.39.987.404 1.376.034l-.693-.727a.031.031 0 01.044 0l-.727.693zm-1.563-1.317a9.36 9.36 0 011.564 1.317l.726-.692a10.315 10.315 0 00-1.732-1.46l-.558.835zm-1.005 1.317a9.312 9.312 0 011.563-1.317l-.558-.835c-.622.416-1.202.904-1.732 1.46l.727.692zm-1.375.034a.973.973 0 001.375-.034l-.727-.692a.031.031 0 01.044-.001l-.692.727zm-.034-1.375a.973.973 0 00.034 1.375l.692-.727a.032.032 0 01.001.044l-.727-.692zm1.509-1.327c-.536.393-1.04.835-1.509 1.327l.727.692c.428-.448.888-.852 1.375-1.209l-.593-.81zm-4.185-.183a9.13 9.13 0 014.249 1.033l.465-.89a10.134 10.134 0 00-4.714-1.147v1.004zm-4.062.948a9.129 9.129 0 014.062-.948V10.43c-1.617 0-3.147.38-4.507 1.052l.445.9zm4.477 6.962a9.19 9.19 0 01-4.198-7.427l-1.003.03a10.194 10.194 0 004.654 8.24l.547-.843zm-.674-.465c-.044.28-.077.563-.1.846l1.001.08a9.86 9.86 0 01.091-.77l-.992-.156zm1.113-.81a.972.972 0 00-1.113.81l.992.156a.032.032 0 01-.036.026l.157-.992zm.809 1.112a.972.972 0 00-.81-1.112l-.156.992a.032.032 0 01-.026-.036l.992.156zm-.107 1.125c.013-.377.049-.754.107-1.125l-.992-.156c-.065.412-.104.83-.118 1.247l1.003.034zm3.845.512a9.13 9.13 0 01-4.12-.977l-.453.896a10.132 10.132 0 004.573 1.085v-1.004zm4.061-.948a9.13 9.13 0 01-4.061.948v1.004c1.616 0 3.147-.38 4.507-1.053l-.446-.9zm-.387-.689c.06.38.096.768.108 1.154l1.004-.031a10.307 10.307 0 00-.12-1.28l-.992.157zm.81-1.112a.973.973 0 00-.81 1.112l.992-.156a.031.031 0 01-.026.036l-.156-.992zm1.112.81a.973.973 0 00-1.113-.81l.157.992a.031.031 0 01-.036-.026l.992-.156zm-2.248-3.426a.031.031 0 01-.043-.01l.862-.515a.972.972 0 00-1.333-.337l.514.862zm.01-.043a.031.031 0 01-.01.043l-.514-.862a.973.973 0 00-.338 1.333l.863-.514zm.846 1.798a10.169 10.169 0 00-.845-1.798l-.863.514a9.1 9.1 0 01.762 1.62l.946-.336zm-.03-.021a.03.03 0 01.018.005c.006.004.01.01.012.016l-.946.336c.142.4.517.647.917.647v-1.004zm-.01.002a.031.031 0 01.01-.002v1.004a.972.972 0 00.326-.056l-.336-.946zm-.019.04a.031.031 0 01.02-.04l.336.946a.973.973 0 00.59-1.242l-.946.336zm-.84-1.787c.337.566.62 1.167.84 1.787l.946-.337a11.116 11.116 0 00-.924-1.964l-.862.514zM20.2 26.025a.034.034 0 01.012-.011.03.03 0 01.015-.004v1.004c.32 0 .637-.16.822-.453l-.849-.536zm.895-1.787a10.125 10.125 0 01-.895 1.787l.85.536c.39-.62.721-1.28.983-1.964l-.938-.359zm.018.04a.031.031 0 01-.018-.04l.938.359a.973.973 0 00-.561-1.256l-.359.938zm.04-.017a.031.031 0 01-.04.018l.359-.938a.973.973 0 00-1.256.561l.938.359zm-.9 1.797c.359-.567.662-1.171.9-1.797l-.937-.359a9.175 9.175 0 01-.811 1.62l.848.536zm-.01-.043c.015.01.02.029.01.043l-.848-.536a.973.973 0 00.302 1.342l.537-.849zm-.016-.005a.036.036 0 01.017.005l-.537.849a.97.97 0 00.52.15V26.01zm-6.47.005a.034.034 0 01.017-.005v1.004a.97.97 0 00.519-.15l-.536-.849zm-.01.043a.031.031 0 01.01-.043l.536.849a.972.972 0 00.303-1.342l-.85.536zm-.9-1.797c.239.626.542 1.23.9 1.797l.849-.536a9.172 9.172 0 01-.812-1.62l-.938.359zm.04.018a.031.031 0 01-.04-.018l.937-.359a.973.973 0 00-1.255-.56l.358.937zm.018-.04a.031.031 0 01-.018.04l-.358-.938a.973.973 0 00-.562 1.256l.938-.359zm.895 1.786a10.117 10.117 0 01-.895-1.787l-.938.359c.262.684.593 1.345.984 1.964l.849-.536zm-.026-.015a.03.03 0 01.014.004c.005.003.01.007.012.01l-.849.537a.972.972 0 00.823.453V26.01zm.36-11.418a.973.973 0 00-1.333.337l.862.514a.031.031 0 01-.043.011l.514-.862zm.338 1.333a.973.973 0 00-.338-1.333l-.514.862a.032.032 0 01-.01-.043l.862.514zm-.762 1.62a9.17 9.17 0 01.762-1.62l-.862-.514c-.34.57-.624 1.174-.846 1.798l.946.336zm-.917.647c.4 0 .775-.248.917-.647l-.946-.336a.034.034 0 01.012-.016.03.03 0 01.018-.005v1.004zm-.325-.056a.975.975 0 00.325.056v-1.004a.03.03 0 01.01.002l-.335.946zm-.59-1.243a.973.973 0 00.59 1.242l.336-.945a.031.031 0 01.019.04l-.946-.337zm.923-1.964c-.37.622-.682 1.283-.924 1.964l.946.337c.22-.62.503-1.221.84-1.787l-.862-.514z"/></g></svg>