<svg width="32" height="32" fill="none" xmlns="http://www.w3.org/2000/svg"><g opacity=".2" clip-path="url(#clip0)" fill="#000"><path d="M23.366 19.268c-.09-.301-.462-.442-.844-.442-.371 0-.743.141-.833.442l-1.939 6.317c-.01.04-.02.08-.02.1 0 .322.472.542.824.542.22 0 .392-.07.442-.26l.381-1.336h2.3l.382 1.335c.05.191.22.261.441.261.352 0 .824-.23.824-.542 0-.03-.01-.06-.02-.1l-1.938-6.317zm-1.718 4.338l.874-3.083.874 3.083h-1.748z"/><path d="M28.552 13.054h-9.606V8.951l3.122-2.23a.937.937 0 000-1.525l-3.16-2.257A3.453 3.453 0 0015.498 0H3.448A3.452 3.452 0 000 3.448v12.05a3.452 3.452 0 003.448 3.448h9.606v4.103l-3.122 2.23a.938.938 0 000 1.525l3.16 2.257A3.453 3.453 0 0016.502 32h12.05A3.452 3.452 0 0032 28.552v-12.05a3.452 3.452 0 00-3.448-3.448zM3.448 17.071a1.575 1.575 0 01-1.573-1.573V3.448c0-.867.706-1.573 1.573-1.573h12.05c.867 0 1.573.706 1.573 1.573 0 .303.146.587.392.763l2.447 1.747-2.447 1.748a.938.938 0 00-.392.763v4.585h-.569a3.452 3.452 0 00-3.448 3.448v.569H3.448zm26.677 11.481c0 .867-.706 1.573-1.573 1.573h-12.05a1.575 1.575 0 01-1.573-1.573.937.937 0 00-.392-.763l-2.447-1.747 2.447-1.748a.938.938 0 00.392-.763v-7.029c0-.867.706-1.573 1.573-1.573h12.05c.867 0 1.573.706 1.573 1.573v12.05z"/><path d="M12.353 8.643a.529.529 0 000-1.058h-2.351V6.301a.529.529 0 00-1.058 0v1.284H6.592a.529.529 0 000 1.058h.729a5.043 5.043 0 001.322 2.907 3.98 3.98 0 01-2.05.566.529.529 0 100 1.058c1.07 0 2.062-.335 2.88-.903a5.03 5.03 0 002.88.903.529.529 0 000-1.057 3.98 3.98 0 01-2.05-.567 5.043 5.043 0 001.321-2.907h.73zm-2.88 2.246a3.993 3.993 0 01-1.087-2.246h2.173a3.991 3.991 0 01-1.086 2.246z"/></g><defs><clipPath id="clip0"><path fill="#fff" d="M0 0h32v32H0z"/></clipPath></defs></svg>