<svg width="32" height="32" fill="none" xmlns="http://www.w3.org/2000/svg"><g opacity=".2" fill="#000"><path d="M24.125 14.375a1.25 1.25 0 100-2.5 1.25 1.25 0 000 2.5z"/><path d="M27 2.5h-1.625V1.25a1.25 1.25 0 10-2.5 0V2.5h-5.688V1.25a1.25 1.25 0 10-2.5 0V2.5H9.064V1.25a1.25 1.25 0 10-2.5 0V2.5H5c-2.757 0-5 2.243-5 5V27c0 2.757 2.243 5 5 5h9.563a1.25 1.25 0 100-2.5H5A2.503 2.503 0 012.5 27V7.5C2.5 6.122 3.622 5 5 5h1.563v1.25a1.25 1.25 0 102.5 0V5h5.624v1.25a1.25 1.25 0 102.5 0V5h5.688v1.25a1.25 1.25 0 102.5 0V5H27c1.378 0 2.5 1.122 2.5 2.5v7.125a1.25 1.25 0 102.5 0V7.5c0-2.757-2.243-5-5-5z"/><path d="M24.438 16.875c-4.17 0-7.563 3.392-7.563 7.563 0 4.17 3.392 7.562 7.563 7.562C28.608 32 32 28.608 32 24.437c0-4.17-3.392-7.562-7.563-7.562zm0 12.625a5.068 5.068 0 01-5.063-5.063 5.068 5.068 0 015.063-5.062 5.068 5.068 0 015.062 5.063 5.068 5.068 0 01-5.063 5.062z"/><path d="M26.25 23.188h-.563v-1.313a1.25 1.25 0 10-2.5 0v2.563c0 .69.56 1.25 1.25 1.25h1.813a1.25 1.25 0 100-2.5zm-7.562-8.813a1.25 1.25 0 100-2.5 1.25 1.25 0 000 2.5zm-5.438 5.438a1.25 1.25 0 100-2.5 1.25 1.25 0 000 2.5zm-5.437-5.438a1.25 1.25 0 100-2.5 1.25 1.25 0 000 2.5zm0 5.438a1.25 1.25 0 100-2.5 1.25 1.25 0 000 2.5zm0 5.437a1.25 1.25 0 100-2.5 1.25 1.25 0 000 2.5zm5.437 0a1.25 1.25 0 100-2.5 1.25 1.25 0 000 2.5zm0-10.875a1.25 1.25 0 100-2.5 1.25 1.25 0 000 2.5z"/></g></svg>