<svg width="34" height="34" fill="none" xmlns="http://www.w3.org/2000/svg"><g opacity=".2" fill="#000"><path fill-rule="evenodd" clip-rule="evenodd" d="M21.21 1h8.457A3.338 3.338 0 0133 4.333v8.458a5.96 5.96 0 01-1.757 4.242l-14.83 14.83A3.856 3.856 0 0113.67 33a3.86 3.86 0 01-2.749-1.137L2.137 23.08A3.856 3.856 0 011 20.336a3.86 3.86 0 011.137-2.75l14.83-14.829A5.96 5.96 0 0121.209 1zm9.09 15.09a4.635 4.635 0 001.366-3.3V4.334c0-1.102-.898-2-2-2h-8.458a4.639 4.639 0 00-3.3 1.367L3.08 18.53a2.531 2.531 0 00-.747 1.8c0 .686.266 1.326.747 1.806l8.784 8.784c.967.965 2.648.959 3.607 0L30.3 16.09zm-7.968-7.757A3.338 3.338 0 0125.667 5 3.338 3.338 0 0129 8.333a3.338 3.338 0 01-3.333 3.334 3.338 3.338 0 01-3.334-3.334zm1.334 0c0 1.103.897 2 2 2 1.102 0 2-.897 2-2 0-1.102-.898-2-2-2-1.103 0-2 .898-2 2z"/><path d="M31.243 17.033l-.354-.353.354.353zm-14.83 14.83l.354.353-.354-.353zm-5.493 0l-.354.353.354-.353zM2.137 23.08l-.353.354.353-.354zm0-5.493l.354.353-.354-.353zm14.83-14.83l-.354-.353.354.353zm14.7 10.034h.5v-.5h-.5v.5zM30.3 16.089l.354.354-.354-.354zm1.366-3.298h-.5v.5h.5v-.5zM17.909 3.7l-.353-.354.353.354zM3.08 18.53l.354.353-.354-.354zm0 3.606l.354-.354-.354.354zm8.784 8.784l-.354.354.354-.354zm3.607 0l-.354-.354.354.354zM29.667.5h-8.458v1h8.458v-1zM33.5 4.333A3.838 3.838 0 0029.667.5v1A2.838 2.838 0 0132.5 4.333h1zm0 8.458V4.333h-1v8.458h1zm-1.904 4.596A6.46 6.46 0 0033.5 12.79h-1a5.46 5.46 0 01-1.61 3.889l.706.707zm-14.83 14.83l14.83-14.83-.707-.707-14.83 14.83.708.706zM13.67 33.5c1.17 0 2.27-.457 3.098-1.284l-.707-.707c-.64.64-1.487.991-2.39.991v1zm-3.103-1.284A4.359 4.359 0 0013.67 33.5v-1a3.359 3.359 0 01-2.395-.99l-.708.706zm-8.782-8.782l8.782 8.782.708-.707-8.783-8.783-.707.708zM.5 20.336c0 1.169.457 2.27 1.284 3.098l.707-.708a3.356 3.356 0 01-.991-2.39h-1zm1.284-3.103A4.36 4.36 0 00.5 20.336h1c0-.909.351-1.756.99-2.396l-.706-.707zm14.83-14.83l-14.83 14.83.707.707L17.32 3.11l-.708-.706zM21.208.5a6.46 6.46 0 00-4.596 1.904l.707.707A5.46 5.46 0 0121.21 1.5v-1zm9.958 12.29a4.135 4.135 0 01-1.22 2.946l.708.707a5.135 5.135 0 001.512-3.652h-1zm.5.5v-1 1zm-.5-8.957v8.458h1V4.333h-1zm-1.5-1.5c.826 0 1.5.674 1.5 1.5h1c0-1.379-1.122-2.5-2.5-2.5v1zm-8.458 0h8.458v-1h-8.458v1zm-2.946 1.22a4.139 4.139 0 012.946-1.22v-1c-1.38 0-2.677.538-3.653 1.513l.707.708zm-14.83 14.83l14.83-14.83-.707-.707-14.83 14.83.708.707zm-.6 1.448c0-.547.213-1.06.6-1.448l-.707-.707a3.031 3.031 0 00-.893 2.155h1zm.6 1.451a2.03 2.03 0 01-.6-1.451h-1c0 .817.318 1.585.894 2.159l.706-.708zm8.785 8.784l-8.784-8.784-.708.708 8.784 8.784.708-.708zm2.9 0c-.765.765-2.13.77-2.9 0l-.707.708c1.162 1.16 3.16 1.153 4.313 0l-.707-.708zm14.83-14.83l-14.83 14.83.706.708 14.83-14.831-.706-.707zM25.667 4.5a3.838 3.838 0 00-3.834 3.833h1A2.838 2.838 0 0125.667 5.5v-1zM29.5 8.333A3.838 3.838 0 0025.667 4.5v1A2.838 2.838 0 0128.5 8.333h1zm-3.833 3.834A3.838 3.838 0 0029.5 8.333h-1a2.838 2.838 0 01-2.833 2.834v1zm-3.834-3.834a3.838 3.838 0 003.834 3.834v-1a2.838 2.838 0 01-2.834-2.834h-1zm3.834 1.5c-.827 0-1.5-.673-1.5-1.5h-1a2.5 2.5 0 002.5 2.5v-1zm1.5-1.5c0 .827-.674 1.5-1.5 1.5v1c1.378 0 2.5-1.12 2.5-2.5h-1zm-1.5-1.5c.826 0 1.5.674 1.5 1.5h1c0-1.379-1.122-2.5-2.5-2.5v1zm-1.5 1.5c0-.826.673-1.5 1.5-1.5v-1a2.502 2.502 0 00-2.5 2.5h1z"/></g></svg>