<svg width="24" height="24" fill="none" xmlns="http://www.w3.org/2000/svg"><g clip-path="url(#clip0)" fill="#FE6681"><path d="M21.5 13.5c1.378 0 2.5-1.122 2.5-2.5V3C24 1.622 22.878.5 21.5.5h-3c-.563 0-1.081.19-1.5.506V13.5h4.5zM0 9.75c0 .601.238 1.161.651 1.574a2.483 2.483 0 00-.64 1.909C.128 14.504 1.273 15.5 2.619 15.5h6.177c-.306.929-.796 2.632-.796 4 0 2.169 1.843 4 3 4 1.039 0 1.781-.585 1.813-.609A.502.502 0 0013 22.5v-3.391l2.88-6.239.12-.061V2.091c-.814-.384-1.844-.591-2.5-.591H4.321c-1.089 0-2.042.734-2.266 1.747a2.25 2.25 0 00.181 1.502A2.24 2.24 0 001.235 7.75 2.239 2.239 0 000 9.75z"/></g><defs><clipPath id="clip0"><path fill="#fff" transform="rotate(-180 12 12)" d="M0 0h24v24H0z"/></clipPath></defs></svg>