<svg width="24" height="24" fill="none" xmlns="http://www.w3.org/2000/svg"><g clip-path="url(#clip0)"><path d="M12.674 10.877h-1.26v1.253h1.26v-1.253zm4.726 4.696h-1.26v1.253h1.26v-1.253zm-4.726 0h-1.26v1.253h1.26v-1.253zM17.4 6.184h-1.26v1.252h1.26V6.184zm-4.726 0h-1.26v1.252h1.26V6.184zm-4.723 4.693h-1.26v1.253h1.26v-1.253zm9.449 0h-1.26v1.253h1.26v-1.253zM7.951 6.184h-1.26v1.252h1.26V6.184zm0 9.389h-1.26v1.253h1.26v-1.253z" fill="#F6E2EF"/><path d="M22.383 12.622h-6.246v2.459h6.248c.681 0 1.238-.553 1.238-1.23a1.237 1.237 0 00-1.241-1.229zm-10.97 2.458h1.261v-2.458H6.691v2.459h4.721zm-9.709 0h1.524v-2.458H1.704c-.68 0-1.237.55-1.237 1.23 0 .676.557 1.229 1.237 1.229zm0-9.389h1.524V3.232H1.704c-.68 0-1.237.553-1.237 1.23 0 .68.557 1.23 1.237 1.23z" fill="#CEE8E6"/><path d="M3.72 12.13v4.693h2.475v-5.946H3.72v1.253zm0 9.647a1.237 1.237 0 002.475 0v-1.51H3.72v1.51zM6.195 6.184V1.229a1.237 1.237 0 00-2.475.001v6.207h2.475V6.184zm9.449 0V1.229a1.236 1.236 0 00-2.474.001v6.207h2.474V6.184zM13.17 12.13v4.693h2.474v-5.946H13.17v1.253zm0 9.647a1.236 1.236 0 002.474 0v-1.51H13.17v1.51z" fill="#F2D2E5"/><path d="M22.383 17.315h-1.52v2.46h1.524c.68 0 1.237-.553 1.237-1.23a1.24 1.24 0 00-1.24-1.23zm-15.939 0h-4.74c-.68 0-1.237.553-1.237 1.23 0 .676.557 1.23 1.237 1.23h6.247v-2.46H6.444zm9.446 0h-4.476v2.46h5.982v-2.46H15.89zm6.493-9.385h-1.52v2.455h1.524c.68 0 1.237-.553 1.237-1.23a1.236 1.236 0 00-1.24-1.226zM1.704 10.384h6.247V7.926H1.704A1.24 1.24 0 00.467 9.159c0 .676.557 1.225 1.237 1.225zm9.709-2.454v2.455h5.984V7.929h-5.983z" fill="#AFDDD2"/><path d="M8.447 16.823v4.951a1.236 1.236 0 002.474 0v-6.197H8.447v1.246zM10.918 1.23a1.236 1.236 0 00-2.471 0v1.514h2.47V1.229zM8.447 7.436v4.693h2.47V6.184h-2.47v1.252zm11.92-6.206a1.236 1.236 0 00-2.474 0v1.514h2.474V1.229zm-2.474 6.206v4.693h2.474V6.184h-2.474v1.252zm0 9.387v4.951a1.236 1.236 0 002.474 0v-6.197h-2.474v1.246z" fill="#A4D9CC"/><path d="M7.951 5.691h4.723V3.232H6.691v2.46h1.26zm9.446 0h4.989c.681 0 1.238-.553 1.238-1.23 0-.676-.557-1.229-1.238-1.229h-6.249v2.46h1.26z" fill="#CEE8E6"/></g><defs><clipPath id="clip0"><path fill="#fff" transform="translate(.467)" d="M0 0h23.153v23.006H0z"/></clipPath></defs></svg>