<svg width="46" height="46" fill="none" xmlns="http://www.w3.org/2000/svg"><path d="M21.385 21.376a2.29 2.29 0 103.239 3.24 2.29 2.29 0 00-3.24-3.24z" fill="#F6E2EF"/><path d="M12.134 30.626l.061.06a4.495 4.495 0 106.357-6.357l-.805-.806-1.62-1.62-1.273-1.272-.264-.264-1.273-1.273-1.62-1.62-2.16-2.161a4.495 4.495 0 10-6.358 6.357l.06.061 1.274 1.273 6.348 6.349 1.273 1.273z" fill="#CEE8E6"/><path d="M24.278 27.508l-.633.633-.64.64-6.358 6.358-.632.632-.641.641-.052.052a4.495 4.495 0 006.357 6.358l.052-.053.641-.64.632-.633 6.358-6.357.64-.641.633-.632.06-.06a4.495 4.495 0 00-6.357-6.358l-.06.06z" fill="#F2D2E5"/><path d="M33.8 15.309a4.49 4.49 0 00-6.348 6.348l.065.065.632.633.641.64 6.357 6.358.633.632.64.641.057.056a4.49 4.49 0 106.349-6.348l-.057-.057-.64-.64-.633-.633-6.357-6.357-.641-.641-.633-.632-.064-.065z" fill="#AFDDD2"/><path d="M24.278 3.24l-.633.632-.64.64-6.35 6.35-.64.64-.633.632-.064.065a4.49 4.49 0 106.348 6.35l.065-.066.632-.632.641-.641 6.35-6.349.64-.64.632-.633.065-.065a4.49 4.49 0 00-6.348-6.349l-.065.065z" fill="#A4D9CC"/></svg>