<svg width="18" height="18" fill="none" xmlns="http://www.w3.org/2000/svg"><g clip-path="url(#clip0)"><path d="M9.702 14l8.01-8.01A.977.977 0 0018 5.294a.977.977 0 00-.288-.696l-.59-.59a.986.986 0 00-1.392 0l-6.726 6.726L2.27 4a.978.978 0 00-.696-.287A.979.979 0 00.877 4l-.59.59A.978.978 0 000 5.287c0 .263.102.51.288.696L8.305 14a.979.979 0 00.698.287.978.978 0 00.7-.287z" fill="#F74EBC"/></g><defs><clipPath id="clip0"><path fill="#fff" transform="rotate(90 9 9)" d="M0 0h18v18H0z"/></clipPath></defs></svg>