<svg width="78" height="78" fill="none" xmlns="http://www.w3.org/2000/svg"><g filter="url(#filter0_d)"><rect x="4" width="70" height="70" rx="35" fill="url(#paint0_linear)"/></g><path d="M29.687 49v-3.78l10.248-10.458c2.492-2.492 3.738-4.648 3.738-6.468 0-1.428-.434-2.534-1.302-3.318-.84-.812-1.918-1.218-3.234-1.218-2.464 0-4.284 1.218-5.46 3.654l-4.074-2.394c.924-1.96 2.226-3.444 3.906-4.452 1.68-1.008 3.542-1.512 5.586-1.512 2.576 0 4.788.812 6.636 2.436 1.848 1.624 2.772 3.836 2.772 6.636 0 2.996-1.666 6.188-4.998 9.576l-6.636 6.636h12.18V49H29.687z" fill="#fff"/><defs><linearGradient id="paint0_linear" x1="39" y1="0" x2="39" y2="70" gradientUnits="userSpaceOnUse"><stop stop-color="#29DD86"/><stop offset="1" stop-color="#00BC8E"/></linearGradient><filter id="filter0_d" x="0" y="0" width="78" height="78" filterUnits="userSpaceOnUse" color-interpolation-filters="sRGB"><feFlood flood-opacity="0" result="BackgroundImageFix"/><feColorMatrix in="SourceAlpha" values="0 0 0 0 0 0 0 0 0 0 0 0 0 0 0 0 0 0 127 0"/><feOffset dy="4"/><feGaussianBlur stdDeviation="2"/><feColorMatrix values="0 0 0 0 0 0 0 0 0 0 0 0 0 0 0 0 0 0 0.05 0"/><feBlend in2="BackgroundImageFix" result="effect1_dropShadow"/><feBlend in="SourceGraphic" in2="effect1_dropShadow" result="shape"/></filter></defs></svg>