<svg width="78" height="78" fill="none" xmlns="http://www.w3.org/2000/svg"><g filter="url(#filter0_d)"><rect x="4" width="70" height="70" rx="35" fill="url(#paint0_linear)"/></g><path d="M42.187 31.612c2.128.504 3.85 1.498 5.166 2.982 1.344 1.456 2.016 3.29 2.016 5.502 0 2.94-.994 5.25-2.982 6.93-1.988 1.68-4.424 2.52-7.308 2.52-2.24 0-4.256-.518-6.048-1.554-1.764-1.036-3.038-2.548-3.822-4.536l4.116-2.394c.868 2.52 2.786 3.78 5.754 3.78 1.68 0 3.01-.42 3.99-1.26.98-.868 1.47-2.03 1.47-3.486 0-1.456-.49-2.604-1.47-3.444-.98-.84-2.31-1.26-3.99-1.26h-1.092l-1.932-2.898 6.342-8.358H30.091V19.6h18.06v4.116l-5.964 7.896z" fill="#fff"/><defs><linearGradient id="paint0_linear" x1="39" y1="0" x2="39" y2="70" gradientUnits="userSpaceOnUse"><stop stop-color="#29DD86"/><stop offset="1" stop-color="#00BC8E"/></linearGradient><filter id="filter0_d" x="0" y="0" width="78" height="78" filterUnits="userSpaceOnUse" color-interpolation-filters="sRGB"><feFlood flood-opacity="0" result="BackgroundImageFix"/><feColorMatrix in="SourceAlpha" values="0 0 0 0 0 0 0 0 0 0 0 0 0 0 0 0 0 0 127 0"/><feOffset dy="4"/><feGaussianBlur stdDeviation="2"/><feColorMatrix values="0 0 0 0 0 0 0 0 0 0 0 0 0 0 0 0 0 0 0.05 0"/><feBlend in2="BackgroundImageFix" result="effect1_dropShadow"/><feBlend in="SourceGraphic" in2="effect1_dropShadow" result="shape"/></filter></defs></svg>