<svg width="78" height="78" fill="none" xmlns="http://www.w3.org/2000/svg"><g filter="url(#filter0_d)"><rect x="4" width="70" height="70" rx="35" fill="url(#paint0_linear)"/></g><path d="M39.523 29.47c3.052 0 5.544.938 7.476 2.814 1.932 1.848 2.898 4.256 2.898 7.224s-.966 5.39-2.898 7.266c-1.932 1.848-4.424 2.772-7.476 2.772-3.08 0-5.586-.924-7.518-2.772-1.932-1.876-2.898-4.298-2.898-7.266 0-2.24.588-4.214 1.764-5.922L40.195 19.6h5.502l-6.72 9.87h.546zm0 15.498c1.624 0 2.954-.49 3.99-1.47 1.036-1.008 1.554-2.338 1.554-3.99 0-1.652-.518-2.968-1.554-3.948-1.036-1.008-2.366-1.512-3.99-1.512-1.652 0-2.996.504-4.032 1.512-1.036.98-1.554 2.296-1.554 3.948 0 1.652.518 2.982 1.554 3.99 1.036.98 2.38 1.47 4.032 1.47z" fill="#fff"/><defs><linearGradient id="paint0_linear" x1="39" y1="0" x2="39" y2="70" gradientUnits="userSpaceOnUse"><stop stop-color="#FF8CC3"/><stop offset="1" stop-color="#F74EBC"/></linearGradient><filter id="filter0_d" x="0" y="0" width="78" height="78" filterUnits="userSpaceOnUse" color-interpolation-filters="sRGB"><feFlood flood-opacity="0" result="BackgroundImageFix"/><feColorMatrix in="SourceAlpha" values="0 0 0 0 0 0 0 0 0 0 0 0 0 0 0 0 0 0 127 0"/><feOffset dy="4"/><feGaussianBlur stdDeviation="2"/><feColorMatrix values="0 0 0 0 0 0 0 0 0 0 0 0 0 0 0 0 0 0 0.05 0"/><feBlend in2="BackgroundImageFix" result="effect1_dropShadow"/><feBlend in="SourceGraphic" in2="effect1_dropShadow" result="shape"/></filter></defs></svg>