<svg width="78" height="78" fill="none" xmlns="http://www.w3.org/2000/svg"><g filter="url(#filter0_d)"><rect x="4" width="70" height="70" rx="35" fill="url(#paint0_linear)"/></g><path d="M39.607 30.688c2.8 0 5.166.84 7.098 2.52 1.932 1.652 2.898 3.948 2.898 6.888s-.994 5.25-2.982 6.93c-1.988 1.68-4.424 2.52-7.308 2.52-2.324 0-4.382-.532-6.174-1.596-1.792-1.092-3.066-2.66-3.822-4.704l4.158-2.394c.784 2.66 2.73 3.99 5.838 3.99 1.652 0 2.968-.42 3.948-1.26 1.008-.868 1.512-2.03 1.512-3.486 0-1.456-.49-2.604-1.47-3.444-.98-.84-2.282-1.26-3.906-1.26h-8.568L31.963 19.6h16.38v4.536H36.415l-.504 6.552h3.696z" fill="#fff"/><defs><linearGradient id="paint0_linear" x1="39" y1="0" x2="39" y2="70" gradientUnits="userSpaceOnUse"><stop stop-color="#FF8CC3"/><stop offset="1" stop-color="#F74EBC"/></linearGradient><filter id="filter0_d" x="0" y="0" width="78" height="78" filterUnits="userSpaceOnUse" color-interpolation-filters="sRGB"><feFlood flood-opacity="0" result="BackgroundImageFix"/><feColorMatrix in="SourceAlpha" values="0 0 0 0 0 0 0 0 0 0 0 0 0 0 0 0 0 0 127 0"/><feOffset dy="4"/><feGaussianBlur stdDeviation="2"/><feColorMatrix values="0 0 0 0 0 0 0 0 0 0 0 0 0 0 0 0 0 0 0.05 0"/><feBlend in2="BackgroundImageFix" result="effect1_dropShadow"/><feBlend in="SourceGraphic" in2="effect1_dropShadow" result="shape"/></filter></defs></svg>